<?xml version="1.0" standalone="yes"?>
<svg xmlns="http://www.w3.org/2000/svg" width="9488" height="6269">
<path style="fill:#ffffff; stroke:none;" d="M0 0L0 6269L9488 6269L9488 0L0 0z"/>
<path style="fill:#738593; stroke:none;" d="M2761 1497.42C2748.43 1499.07 2735.62 1497.23 2723 1498.09C2688.33 1500.46 2653.64 1501.82 2619 1505.17C2527.32 1514.04 2435.77 1530.75 2347 1555.42C1938.2 1669.07 1580.82 1941.32 1367.42 2309C1097.47 2774.14 1071.57 3358.94 1306.26 3844C1369.54 3974.79 1449.99 4097.28 1545.28 4207C1658.04 4336.83 1791.5 4449.1 1939 4537.6C2076.48 4620.09 2227.72 4685.02 2384 4722.12C2584.57 4769.73 2791.45 4783.62 2996 4756.72C3356.79 4709.28 3697.68 4539.69 3951.99 4279C4117.85 4108.98 4245.69 3903.74 4325.31 3680C4392.55 3491.04 4422.89 3289.17 4417.99 3089C4407.63 2666.28 4226.18 2249.81 3920 1957.04C3741.68 1786.53 3529.09 1657.36 3295 1579.33C3168.48 1537.16 3035.96 1511.03 2903 1501.91C2871.28 1499.74 2839.81 1498.76 2808 1497.99C2792.53 1497.61 2776.48 1495.39 2761 1497.42z"/>
<path style="fill:#ffffff; stroke:none;" d="M3775 2870C3741.08 2875.01 3706.83 2903.25 3681 2924C3610.12 2980.93 3572.78 3058.7 3550.12 3145C3541.16 3179.1 3534 3213.65 3534 3249C3519.55 3235.75 3509.46 3212.56 3498.95 3196C3476.89 3161.24 3454.6 3126.61 3432.31 3092C3372.91 2999.79 3314.09 2907.21 3254.69 2815C3218.21 2758.37 3184.52 2698.32 3140.57 2647C3082.29 2578.94 3000.9 2538.32 2923 2497.22C2867.33 2467.84 2811.16 2435.21 2753 2411C2790.88 2346.77 2819.8 2278.38 2849.15 2210C2857.55 2190.42 2867.04 2170.92 2874.53 2151C2876.82 2144.91 2873.21 2134.37 2865.21 2139.86C2860.81 2142.88 2858.93 2150.31 2856.86 2155C2851.29 2167.6 2845.99 2180.33 2840.58 2193C2820.53 2239.97 2799.99 2286.61 2778.69 2333C2757.06 2380.1 2728.41 2424.23 2702.42 2469C2652.67 2554.72 2601.32 2639.53 2546.33 2722C2493.96 2800.56 2441.75 2891.1 2348 2923.66C2291.58 2943.25 2238.58 2920.26 2185 2902.33C2119.51 2880.42 2057.51 2862.89 1988 2863C1957.71 2863.05 1926.06 2868.95 1897 2877.29C1889.26 2879.51 1881.54 2881.96 1874 2884.81C1871.42 2885.78 1867.18 2888.18 1864.56 2886.21C1861.31 2883.76 1860.78 2875.74 1860 2872C1857.18 2858.39 1854.78 2844.76 1852.87 2831C1845.1 2775.09 1841.13 2713.03 1856.42 2658C1871.44 2603.97 1901.83 2551.2 1942 2512.01C1952.03 2502.23 1963.05 2492.98 1975 2485.61C1978.2 2483.64 1983.59 2478.98 1987.58 2479.5C1992.58 2480.15 1999.03 2487.38 2003 2490.37C2016.43 2500.49 2029.63 2510.92 2043 2521.12L2086 2553.88C2097.02 2562.29 2108.09 2570.66 2119 2579.21C2127.92 2586.2 2136.99 2593.01 2146 2599.88C2180.1 2625.91 2233.1 2675.14 2278 2642.51C2283.28 2638.67 2287.64 2634.23 2291.52 2629C2297.42 2621.07 2301.71 2612.13 2305.4 2603C2314.49 2580.48 2319.93 2556.35 2326.42 2533C2338.5 2489.58 2350.77 2446.17 2363.72 2403C2397 2292.04 2435.92 2182.32 2479.6 2075C2496.45 2033.61 2520.45 1997.71 2549.58 1964C2556.26 1956.26 2564.58 1949.26 2570.57 1941C2573.12 1937.47 2573.66 1932.62 2569.77 1929.75C2565.48 1926.57 2561.16 1930.05 2558 1933.04C2549.92 1940.71 2542.57 1949.58 2535.28 1958C2504.91 1993.1 2482.33 2031.32 2464.42 2074C2409.1 2205.85 2365.59 2342.64 2326.42 2480C2316.26 2515.63 2307.38 2551.85 2295.67 2587C2289.69 2604.92 2281.51 2624.65 2264 2634.1C2245.97 2643.83 2223.21 2635.47 2207 2625.99C2168.93 2603.72 2135.21 2572.82 2100 2546.37C2074.48 2527.21 2049.44 2507.4 2024 2488.13C2014.37 2480.83 2002.49 2467.55 1991 2463.74C1980.68 2460.32 1962.77 2475.79 1955 2481.43C1949.29 2485.56 1945.35 2490.79 1939 2484.96C1898.9 2448.14 1866.34 2402.35 1838.2 2356C1818.24 2323.11 1802.92 2284.67 1763 2272.03C1721.89 2259.01 1677.11 2283.02 1660.43 2322C1644.88 2358.32 1651.44 2399.68 1646.72 2438C1640.74 2486.53 1624.92 2530.61 1605.14 2575C1592.97 2602.31 1578.15 2632.38 1578 2663C1577.94 2676.03 1580.51 2692.48 1593 2699.77C1598.05 2702.72 1604.89 2700.89 1604.58 2694.01C1604.23 2686.19 1593.5 2679.33 1592.29 2670C1589.15 2645.91 1602.64 2615.44 1612.31 2594C1634.59 2544.57 1653.96 2496.27 1660.72 2442C1665.16 2406.29 1658.13 2364.69 1672.43 2331C1686.87 2296.98 1723.26 2273.99 1760 2286.36C1792.11 2297.16 1806.24 2329.81 1821.85 2357C1841.93 2391.98 1865.67 2425.12 1891.59 2456C1900.92 2467.12 1910.74 2477.74 1921 2488C1923.76 2490.76 1930.94 2495.71 1930.94 2500C1930.94 2506.26 1916 2518.11 1911.92 2523C1897.7 2540.03 1878.25 2562.33 1872 2584C1861.02 2578.88 1851.48 2566.19 1842 2558.42C1824.1 2543.76 1804.71 2530.61 1784 2520.25C1771.79 2514.14 1759.14 2507.8 1746 2503.9C1740.88 2502.38 1733.01 2503.8 1734.49 2510.99C1735.63 2516.54 1742.53 2517.83 1747 2519.6C1760.71 2525.04 1773.48 2532.34 1787 2538C1760.41 2594.18 1752.35 2657.61 1755.04 2719C1755.89 2738.36 1758.99 2757.93 1762.42 2777C1764.89 2790.68 1767.39 2806.88 1758.36 2818.98C1749.44 2830.94 1732.37 2813.59 1726.53 2806C1722.29 2800.49 1719.51 2792.94 1721.65 2786C1722.99 2781.66 1727.6 2777.91 1726.64 2773.02C1725.08 2765.09 1716.37 2767.45 1712.76 2772.04C1696.66 2792.57 1712.7 2817.95 1731 2830.25C1744.73 2839.48 1760.21 2841.9 1770.56 2827C1783.36 2808.57 1778.52 2786.39 1775.08 2766C1772.12 2748.45 1770.3 2730.72 1769.09 2713C1765.14 2655.35 1778.32 2599.32 1799 2546C1816.76 2554.4 1833.89 2569.55 1848 2583.04C1851.93 2586.8 1861.02 2592.58 1862.36 2598C1863.67 2603.29 1857.44 2612.19 1855.42 2617C1849.32 2631.55 1843.83 2646.57 1840.42 2662C1830.42 2707.31 1831.69 2753.12 1834.91 2799C1836.82 2826.29 1841.27 2853.25 1847 2880C1848.4 2886.51 1849.83 2904.14 1858 2905.38C1863.39 2906.2 1871.03 2901.45 1876 2899.58C1888.4 2894.9 1901.15 2891.11 1914 2887.9C1951.08 2878.63 1989.99 2875.49 2028 2878.09C2084.96 2881.99 2140.44 2901.75 2194 2920.34C2228.92 2932.47 2266.42 2947.91 2304 2946.99C2333.55 2946.26 2362.89 2934.81 2389 2921.75C2406.9 2912.8 2423.33 2901.57 2438 2887.91C2474.72 2853.71 2503.13 2810.92 2531.72 2770C2580.38 2700.37 2624.91 2627.82 2668.6 2555C2687.91 2522.81 2706.59 2490.25 2725.8 2458C2730.53 2450.06 2735.14 2442.03 2739.72 2434C2741.23 2431.34 2743.04 2426.47 2746.21 2425.42C2750.05 2424.14 2757.54 2429.15 2761 2430.78C2774.8 2437.3 2788.35 2444.42 2802 2451.25C2856.5 2478.5 2909.9 2507.75 2964 2535.74C3021.83 2565.66 3078.27 2601.08 3122.91 2649C3151.21 2679.38 3173.3 2715.24 3195.69 2750C3220.78 2788.95 3245.64 2828.03 3270.69 2867C3358.85 3004.13 3444.16 3143.43 3534.7 3279C3546.96 3297.36 3572.88 3268.69 3581.91 3259C3606.37 3232.74 3626.09 3201.34 3643.31 3170C3650.5 3156.9 3659.52 3142.65 3663 3128C3674.62 3136.21 3683.52 3150.11 3692.59 3161C3714.87 3187.77 3746.39 3217.98 3749.83 3254C3752.42 3281.1 3748.32 3308.92 3748.99 3336C3749.47 3355.88 3751.95 3376.68 3766.09 3392C3807.22 3436.53 3865.03 3396.57 3914 3405.46C3943.61 3410.84 3966.82 3433.72 3990 3451.1C4003 3460.85 4017.03 3467.32 4031 3475.34C4038.66 3479.73 4044.37 3486.2 4053 3488.97C4076.9 3496.65 4102.5 3487.04 4126 3482C4144.04 3478.13 4175.37 3476.51 4184.62 3458C4197.72 3431.82 4158.03 3401.69 4135.11 3417.74C4130.24 3421.15 4131.13 3428.33 4137.02 3430.09C4146.22 3432.83 4180.67 3427.51 4172.25 3450C4167.31 3463.22 4136.9 3464.66 4125 3467.35C4105.5 3471.76 4083.22 3480.05 4063 3476.67C4052.59 3474.94 4045.81 3466.84 4037 3461.88C4015.26 3449.62 3996.06 3436.93 3976 3421.87C3949.86 3402.26 3923.62 3387.79 3890 3390.09C3852.14 3392.68 3800.52 3415.74 3772.79 3377C3766.09 3367.64 3765.03 3356.04 3763.71 3345C3760.3 3316.42 3765 3286.73 3765 3258L3766 3258C3769.32 3266.75 3776.87 3279.07 3783.52 3285.72C3787.09 3289.29 3793.24 3289.19 3795.24 3283.95C3797.96 3276.82 3788.08 3266.59 3784.58 3261C3771.64 3240.34 3756.99 3220.49 3742.37 3201C3711.63 3160.01 3679.27 3119.27 3643 3083L3613 3053C3610.29 3050.3 3603.63 3046.17 3603.57 3041.96C3603.47 3034.56 3613.42 3022.26 3617.2 3016C3633.03 2989.81 3654.27 2967.13 3677 2946.83C3695.26 2930.53 3717.65 2909.55 3741 2901C3750.43 2933.99 3770.4 2965.86 3784.69 2997C3815.48 3064.06 3849.43 3130.58 3887.2 3194C3900.17 3215.78 3912.96 3237.68 3926.69 3259C3930.27 3264.56 3936.15 3278.92 3944 3278.72C3960.32 3278.31 3940.03 3253.36 3938 3248C3953.81 3259.49 3972.3 3268.18 3990 3276.31C4020.46 3290.29 4051.91 3303.92 4085 3310.2C4101.92 3313.41 4119.01 3313.28 4136 3315.29C4147.59 3316.65 4168.03 3313.82 4177.88 3320.72C4182.73 3324.12 4179.26 3330.95 4184.23 3333.97C4188.87 3336.8 4193.74 3333.57 4195.2 3329C4197.88 3320.55 4192.35 3311.42 4185 3307.42C4173.14 3300.95 4153.25 3301.62 4140 3301.04C4078.33 3298.34 4020.63 3279.1 3967 3248.42C3949.73 3238.54 3924.87 3226.98 3913.62 3209.96C3879.22 3157.96 3850.87 3100.03 3823.74 3044C3809.68 3014.95 3789.94 2984.88 3780.46 2954C3778.45 2947.46 3784.39 2938.26 3786.28 2932C3791.22 2915.6 3802.31 2885.3 3793.35 2869C3778.54 2842.04 3754.11 2817.22 3734.13 2794C3694.73 2748.22 3653.78 2703.82 3614.42 2658C3550.91 2584.06 3499.39 2500.36 3432.91 2429C3377.36 2369.36 3309.2 2324.56 3245 2275.12C3149.61 2201.66 3080.08 2103.32 3009.85 2007C2993.3 1984.31 2976.98 1961.47 2960.13 1939C2956.6 1934.3 2943.44 1915.37 2938.8 1930.02C2936.91 1935.96 2945.4 1943.7 2948.63 1948C2959.79 1962.89 2970.9 1977.84 2981.71 1993C3027.6 2057.37 3073.4 2122.81 3125.95 2182C3159.74 2220.06 3195.82 2255.22 3236 2286.58C3287.65 2326.88 3343.51 2362.63 3391 2408.04C3473.76 2487.18 3531.83 2586.4 3607.16 2672C3647.3 2717.62 3688.7 2762.28 3727.59 2809C3738.32 2821.9 3748.93 2834.89 3759.4 2848C3764.81 2854.77 3771.87 2861.86 3775 2870z"/>
<path style="fill:#a16349; stroke:none;" d="M4896 2345L4896 3177L4962 3177L4962 2785L5378 2785L5378 2719L4962 2719L4962 2412L5412 2412L5412 2345L4896 2345M6747 2400C6728.51 2426.34 6707.41 2448.05 6696.05 2479C6681.44 2518.84 6682 2561.21 6682 2603L6682 2744L6600 2744L6600 2811L6682 2811L6682 3177L6748 3177L6748 2811L6830 2811L6830 2744L6748 2744L6748 2612C6748 2576 6743.66 2535.49 6755.86 2501C6763.36 2479.82 6777.37 2461.76 6792 2445L6792 2444L6747 2400M5588 2541.52C5532.82 2553.29 5552.99 2639.89 5608 2627.99C5663.75 2615.92 5644.14 2529.54 5588 2541.52M8023 2567L8023 2744L7934 2744L7934 2811L8023 2811L8023 2978C8023 3018.61 8020.83 3059.3 8035.43 3098C8044.05 3120.87 8057.6 3141 8072.8 3160C8075.91 3163.89 8084.09 3177.89 8090 3175.82C8094.23 3174.35 8097.93 3169.07 8101 3166C8108.51 3158.49 8116.49 3151.52 8124 3144C8126.78 3141.22 8133.59 3136.49 8133.08 3132C8132.18 3124.03 8117.91 3111.98 8113.34 3105C8102.56 3088.51 8096.1 3070.33 8092.61 3051C8087.06 3020.19 8089 2988.18 8089 2957L8089 2811L8178 2811L8178 2744L8089 2744L8089 2567L8023 2567z"/>
<path style="fill:#ffffff; stroke:none;" d="M1617.04 2667.76C1612.05 2669.59 1610.66 2676.41 1609.67 2681C1606.92 2693.67 1607.73 2707.13 1615.44 2718C1618.84 2722.79 1626.21 2730.65 1632.89 2727.45C1636.41 2725.77 1637.64 2721.5 1635.82 2718.1C1632.46 2711.84 1625.96 2709.64 1623.79 2702C1620.9 2691.83 1627.33 2682.6 1625.76 2673.04C1625.08 2668.95 1621.07 2666.29 1617.04 2667.76M1653.02 2692.79C1648.08 2694.41 1645.83 2700.52 1644.36 2705C1640.25 2717.48 1641.15 2732.39 1649.53 2742.99C1653.38 2747.86 1661.19 2754.1 1667.89 2751.26C1671.39 2749.77 1672.76 2745.43 1670.97 2742.1C1666.5 2733.81 1657.94 2733.19 1656.45 2722C1655.33 2713.54 1663.17 2705.69 1661.64 2698.02C1660.88 2694.19 1656.79 2691.54 1653.02 2692.79M1687.09 2723.76C1671.25 2729.81 1674.39 2762.68 1682.76 2772.83C1686.69 2777.58 1696.48 2784.01 1702.94 2780.78C1706.43 2779.04 1707.88 2774.55 1705.97 2771.11C1702.65 2765.12 1694.44 2766.43 1691.56 2759C1687.04 2747.31 1698.31 2739.22 1696.46 2729.02C1695.71 2724.85 1691.04 2722.25 1687.09 2723.76z"/>
<path style="fill:#a16349; stroke:none;" d="M5858 2797L5858 2745L5792 2745L5792 3177L5858 3177L5858 3013C5858 2980.96 5854.82 2947.26 5863.16 2916C5881.65 2846.65 5944.76 2799 6016 2799L6016 2734C5957.09 2734 5900.18 2755.17 5858 2797M6155 2984L6528 2984C6550.66 2861.94 6447.55 2742.34 6327 2734.09C6232.29 2727.61 6143.46 2779.67 6104.86 2867C6055.17 2979.43 6112.61 3119.02 6228 3162.57C6253.18 3172.08 6279.13 3177 6306 3177C6351.55 3177 6394.98 3165.48 6433 3139.66C6441.76 3133.7 6450.25 3127.26 6458 3120.02C6460.28 3117.9 6465.6 3114.71 6464.65 3110.99C6463.59 3106.83 6457.91 3102.91 6455 3100L6431 3076C6428.3 3073.3 6423.45 3066.29 6419 3067.34C6410.98 3069.25 6401.93 3081.24 6395 3085.97C6380 3096.22 6362.67 3103.92 6345 3108.12C6276.78 3124.31 6201.32 3089.97 6169.75 3027C6163.16 3013.86 6156.21 2998.85 6155 2984M7088 2734.42C7050.87 2739.32 7016.39 2749.98 6985 2771C6961.27 2786.89 6940.89 2807.27 6925 2831C6865.38 2920.04 6878.02 3044.35 6957 3117.91C6984.24 3143.29 7017.23 3160.75 7053 3170.57C7080.29 3178.07 7110.99 3179.29 7139 3175.71C7169.77 3171.79 7199.7 3160.95 7226 3144.57C7333.11 3077.89 7362.98 2928.71 7289.57 2826C7275.1 2805.74 7257.38 2788.03 7237 2773.72C7214.86 2758.18 7190.25 2746.72 7164 2740.13C7140.02 2734.1 7112.66 2731.18 7088 2734.42M7621 2734.42C7583.87 2739.32 7549.39 2749.98 7518 2771C7494.27 2786.89 7473.89 2807.27 7458 2831C7398.38 2920.04 7411.02 3044.35 7490 3117.91C7517.24 3143.29 7550.23 3160.75 7586 3170.57C7613.29 3178.07 7643.99 3179.29 7672 3175.71C7702.77 3171.79 7732.7 3160.95 7759 3144.57C7866.11 3077.89 7895.98 2928.71 7822.57 2826C7808.1 2805.74 7790.38 2788.03 7770 2773.72C7748.47 2758.61 7724.5 2747.19 7699 2740.63C7674.36 2734.29 7646.39 2731.08 7621 2734.42M5564 2745L5564 3177L5630 3177L5630 2745L5564 2745z"/>
<path style="fill:#ffffff; stroke:none;" d="M6157 2919L6462 2919C6459.72 2892.88 6439.9 2863.93 6422 2846C6351.04 2774.92 6229.02 2787.13 6175.81 2874C6167.38 2887.76 6160.28 2903.14 6157 2919M7096 2799.42C7069.73 2802.92 7045.22 2810.52 7023 2825.33C7005.35 2837.1 6989.97 2852.22 6978.34 2870C6967.54 2886.53 6960.17 2904.77 6955.88 2924C6932.26 3029.99 7028.54 3126.67 7134 3111.71C7155.55 3108.66 7176.81 3100.53 7195 3088.66C7238.6 3060.19 7269.16 3009.01 7267.74 2956C7265.38 2867.73 7187.98 2787.2 7096 2799.42M7629 2799.42C7601.77 2803.04 7576.92 2811.22 7554 2826.67C7537.14 2838.03 7522.47 2852.99 7511.34 2870C7500.54 2886.53 7493.17 2904.77 7488.88 2924C7465.26 3029.99 7561.54 3126.67 7667 3111.71C7688.55 3108.66 7709.81 3100.53 7728 3088.66C7771.6 3060.19 7802.16 3009.01 7800.74 2956C7798.38 2867.73 7720.98 2787.2 7629 2799.42z"/>
<path style="fill:#738593; stroke:none;" d="M3753 2893L3770 2932L3771 2932C3777.36 2917.21 3781 2899.07 3781 2883L3753 2893M3595 3057C3574.13 3110.8 3554.68 3166.11 3549.17 3224C3547.76 3238.85 3548.99 3253.2 3549 3268C3561.08 3263.35 3570.78 3250.55 3579 3241C3600.86 3215.63 3618.4 3186.35 3634.31 3157C3639.83 3146.81 3653.27 3127.98 3652.35 3116C3651.93 3110.46 3643.68 3103.79 3639.99 3100C3627.27 3086.97 3611.49 3064.69 3595 3057z"/>
<path style="fill:#ffffff; stroke:none;" d="M2883 3087C2872.21 3112.9 2855.53 3137.5 2841.86 3162C2814.08 3211.79 2786.12 3261.48 2757.85 3311C2724.42 3369.57 2690.9 3428.17 2656.2 3486C2597.23 3584.29 2541.2 3684.11 2499.2 3791C2467.76 3871.03 2446 3954.13 2427.58 4038C2402.9 4150.36 2399.9 4282.46 2466.67 4382C2483.77 4407.49 2510.26 4427.21 2534 4446.2C2558.46 4465.77 2583.4 4487.44 2610 4504C2606.93 4493.33 2600.45 4483.54 2596.69 4473C2588.23 4449.24 2583.94 4423.23 2585.04 4398C2587.96 4331.35 2621.79 4269.82 2664.27 4220C2704.33 4173.03 2749.13 4135.71 2770.95 4076C2785.88 4035.11 2782.39 3994.22 2778.17 3952C2773.9 3909.28 2768.41 3866.69 2763.83 3824C2761.95 3806.42 2757.76 3788.63 2757 3771C2774.01 3783.99 2785.2 3809.3 2797 3827C2823.33 3866.49 2850.34 3905.51 2876.67 3945C2940.02 4040.02 3005.67 4136.73 3050.85 4242C3065.86 4276.97 3083.73 4315.45 3090.74 4353C3100.94 4407.63 3095 4467.74 3080 4521C3123.76 4502.15 3165.92 4474.06 3203 4444.4C3230.26 4422.59 3254.71 4397.45 3275 4369C3290.05 4347.9 3303.04 4324.63 3311.33 4300C3322.9 4265.62 3330.96 4229.38 3325.57 4193C3318.7 4146.55 3291.03 4107.79 3262.4 4072C3222.1 4021.63 3177.33 3974.91 3136.42 3925C3054.22 3824.71 2981.4 3716.81 2937.69 3594C2921.5 3548.49 2909.98 3501.11 2899.58 3454C2887.57 3399.66 2876.09 3342.81 2876 3287C2875.92 3238.38 2880.83 3190.45 2882.01 3142C2882.4 3126.38 2889.13 3101.61 2883 3087M4189 3351C4190.26 3357.16 4197.82 3362.34 4201.97 3354.89C4207.9 3344.26 4190.04 3332.52 4181.11 3338.74C4172.32 3344.87 4181.61 3352.19 4189 3351M4179 3361.58C4173.4 3363.14 4169.93 3370.08 4175.28 3374.26C4179.41 3377.48 4184.72 3375.42 4188.35 3380.11C4192.18 3385.07 4189.47 3399.73 4199.98 3396.92C4206.67 3395.13 4206.02 3386.17 4204.76 3381C4202.27 3370.73 4190.8 3358.29 4179 3361.58M4170.04 3390.75C4154.02 3397.07 4179.85 3406.71 4181.76 3411.04C4183.69 3415.4 4178.9 3419.38 4180.61 3423.96C4181.84 3427.26 4185.56 3429.34 4188.98 3428.21C4209.67 3421.4 4188.95 3383.29 4170.04 3390.75z"/>
<path style="fill:#a16349; stroke:none;" d="M4893 3414L4893 3764L5110 3764L5110 3735L4921 3735L4921 3599L5096 3599L5096 3571L4921 3571L4921 3443L5110 3443L5110 3414L4893 3414M5640 3415L5640 3763L5668 3763L5668 3415L5640 3415M5992 3415L5992 3763L6020 3763L6020 3684C6020 3669.57 6018.1 3653.73 6023.46 3640C6039.5 3598.98 6096.91 3591.44 6118.68 3632C6127.19 3647.86 6126 3665.63 6126 3683L6126 3763L6154 3763L6154 3681C6154 3662.74 6155.59 3644.38 6148.94 3627C6129.19 3575.42 6060.96 3561.09 6020 3596L6020 3415L5992 3415M6342 3763C6349.65 3763 6366.09 3766.13 6372.61 3761.97C6377.16 3759.07 6379.16 3750.67 6381.31 3746C6387.3 3732.94 6393.7 3720.06 6399.69 3707C6403.71 3698.24 6411.33 3670.49 6422 3670.02C6465.81 3668.1 6510.14 3670 6554 3670L6589 3670C6593.28 3670 6599.96 3668.77 6603.79 3671.03C6609.44 3674.36 6611.96 3685.37 6614.75 3691C6623.07 3707.79 6630.87 3724.97 6638.69 3742C6641.16 3747.39 6643.86 3758.39 6648.7 3761.97C6654.57 3766.32 6672.75 3763 6680 3763C6678.12 3752.48 6670.91 3741.61 6666.26 3732C6657.76 3714.44 6649.45 3696.72 6641.31 3679C6612.6 3616.47 6583.84 3553.63 6553.25 3492C6543.29 3471.95 6533.53 3451.52 6524.58 3431C6520.94 3422.67 6517.53 3411.91 6506.22 3415.32C6500.57 3417.02 6496.4 3431.93 6494.14 3437C6484.73 3458.12 6474.81 3479.18 6464.74 3500C6438.32 3554.61 6413.01 3609.86 6387.69 3665C6372.68 3697.7 6355.82 3729.77 6342 3763M7299 3415L7299 3603C7284.9 3590.03 7268.01 3580.86 7249 3577.75C7235.64 3575.57 7221.09 3576.26 7208 3579.63C7130.92 3599.45 7115.1 3709.84 7184 3750.14C7193.59 3755.75 7204.04 3759.99 7215 3761.92C7228.46 3764.28 7243.74 3763.93 7257 3760.62C7272.87 3756.67 7287.05 3747.99 7299 3737L7299 3763L7327 3763L7327 3415L7299 3415z"/>
<path style="fill:#ffffff; stroke:none;" d="M6510 3470L6430 3642L6592 3642L6512 3470L6510 3470z"/>
<path style="fill:#a16349; stroke:none;" d="M5745 3496.53C5721.54 3502.12 5731.85 3538.34 5756 3532.47C5779.06 3526.86 5768.27 3490.99 5745 3496.53M5202 3596L5202 3582L5174 3582L5174 3763L5202 3763L5202 3684C5202 3669.57 5200.1 3653.73 5205.46 3640C5221.5 3598.98 5278.91 3591.44 5300.68 3632C5309.19 3647.86 5308 3665.63 5308 3683L5308 3763L5336 3763L5336 3681C5336 3662.74 5337.59 3644.38 5330.94 3627C5311.19 3575.42 5242.96 3561.09 5202 3596M5545 3737L5545 3802C5545 3834.03 5544.84 3865.53 5514 3884.53C5502.45 3891.65 5490.88 3892.61 5478 3895L5478 3922C5520.06 3922 5557.96 3898.29 5569.84 3856C5578 3827.01 5573 3791.94 5573 3762L5573 3582L5545 3582L5545 3603C5530.9 3590.03 5514.01 3580.86 5495 3577.75C5481.64 3575.57 5467.09 3576.26 5454 3579.63C5376.92 3599.45 5361.1 3709.84 5430 3750.14C5439.59 3755.75 5450.04 3759.99 5461 3761.92C5474.46 3764.28 5489.74 3763.93 5503 3760.62C5518.87 3756.67 5533.05 3747.99 5545 3737M5816 3710C5816.01 3770.47 5911.7 3782.2 5935.68 3731C5938.84 3724.24 5940 3717.4 5940 3710C5940.01 3682.51 5918.13 3663.08 5892 3658.46C5875.26 3655.51 5858.99 3658.02 5847.8 3642C5828.73 3614.7 5872.41 3595.28 5894 3605.32C5900.26 3608.24 5906.03 3612.94 5909.47 3619C5911.03 3621.75 5911.1 3627.03 5913.6 3628.97C5918.53 3632.8 5933.86 3630 5940 3630C5940 3567.32 5842.83 3558.44 5819.31 3611C5816.38 3617.56 5816 3623.93 5816 3631C5816.01 3657.34 5838.36 3676.26 5863 3681.19C5879.95 3684.59 5896.88 3681.88 5908.36 3698C5927.35 3724.66 5882.76 3743.51 5862 3734.1C5856.12 3731.43 5850.4 3726.5 5846.99 3721C5845.27 3718.21 5845.04 3713.02 5842.41 3711.03C5837.39 3707.21 5822.21 3710 5816 3710M6854 3624L6855 3624L6875 3605C6841.69 3563.72 6773.35 3570.15 6740.17 3607C6710 3640.51 6709.08 3693.65 6736.51 3729C6759.99 3759.25 6799.74 3770.21 6836 3759.28C6846.9 3755.99 6857.14 3750.3 6866 3743.19C6868.54 3741.15 6873.63 3737.89 6872.65 3734C6871.56 3729.6 6858.79 3716.21 6854 3717.34C6845.53 3719.35 6836.92 3729 6828 3732.14C6801.13 3741.59 6771.12 3729.1 6755.52 3706C6726.97 3663.73 6760.61 3602.65 6812 3604.59C6827.84 3605.19 6842.73 3613.22 6854 3624M7063 3737L7063 3763L7091 3763L7091 3582L7063 3582L7063 3603C7048.9 3590.03 7032.01 3580.86 7013 3577.75C6999.64 3575.57 6985.09 3576.26 6972 3579.63C6894.92 3599.45 6879.1 3709.84 6948 3750.14C6957.59 3755.74 6968.04 3759.99 6979 3761.92C6992.46 3764.28 7007.74 3763.93 7021 3760.62C7036.87 3756.67 7051.05 3747.99 7063 3737M7538 3736L7538 3735C7533.74 3730.74 7524.31 3717.24 7518 3717.21C7513.32 3717.18 7507.06 3724.78 7503 3727.12C7493.9 3732.38 7483.46 3735.02 7473 3735.41C7438.64 3736.66 7418.05 3710.86 7407 3682L7564 3682C7565.44 3648.56 7557.04 3618.63 7530 3596.46C7481.54 3556.74 7405.73 3579.4 7384.06 3637C7380.02 3647.75 7379 3658.64 7379 3670C7379 3684.93 7381.56 3698.45 7388.11 3712C7415.74 3769.15 7493.89 3779.74 7538 3736M7642 3596L7642 3582L7614 3582L7614 3763L7642 3763L7642 3684C7642 3669.57 7640.1 3653.73 7645.46 3640C7661.5 3598.98 7718.91 3591.44 7740.68 3632C7749.19 3647.86 7748 3665.63 7748 3683L7748 3763L7776 3763L7776 3686C7776 3670.42 7774.48 3653.77 7780.45 3639C7796.48 3599.35 7852.19 3591.85 7873.69 3631C7882.74 3647.49 7882 3666.77 7882 3685L7882 3763L7910 3763L7910 3681C7910 3657.74 7910.91 3635.74 7898.55 3615C7875.79 3576.82 7823.6 3565.33 7786 3588.2C7777.06 3593.64 7766.88 3601.59 7762 3611C7734.28 3572.45 7678.46 3564.93 7642 3596M5736 3582L5736 3763L5764 3763L5764 3582L5736 3582M7969 3582L7969 3660C7969 3675.61 7967.36 3691.91 7972.03 3707C7983.95 3745.52 8023.45 3768.74 8063 3762.56C8079.02 3760.06 8090.75 3752.73 8104 3744C8104 3790.72 8117.75 3859.29 8069 3886.56C8058.42 3892.48 8047.54 3892.86 8036 3895L8036 3922C8079.4 3922 8117.22 3897.61 8128.84 3854C8136.58 3824.99 8132 3790.83 8132 3761L8132 3582L8104 3582L8104 3657C8104 3674.99 8104.93 3692.83 8095.66 3709C8074.95 3745.12 8019.71 3743.21 8002.31 3705C7995.54 3690.13 7997 3673.9 7997 3658L7997 3582L7969 3582z"/>
<path style="fill:#ffffff; stroke:none;" d="M5478 3604.46C5464.18 3605.67 5451.31 3609.04 5440 3617.51C5387.97 3656.52 5421 3742.33 5486 3735.83C5517.32 3732.7 5542.75 3706.37 5544.91 3675C5547.4 3638.79 5516.17 3601.12 5478 3604.46M6996 3604.46C6982.53 3605.64 6970.1 3608.79 6959 3616.92C6906.25 3655.6 6938.01 3742.43 7004 3735.83C7035.32 3732.7 7060.75 3706.37 7062.91 3675C7065.4 3638.79 7034.17 3601.12 6996 3604.46M7232 3604.46C7218.18 3605.67 7205.31 3609.04 7194 3617.51C7141.97 3656.52 7175 3742.33 7240 3735.83C7271.32 3732.7 7296.75 3706.37 7298.91 3675C7301.4 3638.79 7270.17 3601.12 7232 3604.46M7408 3655L7536 3655C7532.15 3643.18 7527.03 3631.92 7517.96 3623.09C7480.13 3586.24 7423.15 3608.44 7408 3655M2857 4160C2815.26 4230.78 2763.17 4301.32 2740.29 4381C2730.78 4414.14 2722.22 4450.39 2734.44 4484C2761.24 4557.71 2865.65 4570.7 2925 4531.33C2945.92 4517.46 2963.87 4498.08 2969.76 4473C2977.12 4441.73 2954.27 4420.13 2935.75 4398C2908.89 4365.89 2882.88 4331.39 2870.03 4291C2861.74 4264.96 2855.64 4236.36 2855.01 4209C2854.69 4194.81 2862.51 4173.14 2857 4160z"/>
</svg>
