<?xml version="1.0" standalone="yes"?>
<svg xmlns="http://www.w3.org/2000/svg" width="9489" height="6270">
<path style="fill:#ffffff; stroke:none;" d="M0 0L0 6270L9489 6270L9489 0L0 0z"/>
<path style="fill:#dfe5e7; stroke:none;" d="M1598 2684L1599 2685L1598 2684z"/>
<path style="fill:#b2bbc4; stroke:none;" d="M1722 2785L1723 2786L1722 2785z"/>
<path style="fill:#dfe5e7; stroke:none;" d="M1764 2803L1765 2804L1764 2803M1746 2821L1747 2822L1746 2821z"/>
<path style="fill:#b2bbc4; stroke:none;" d="M1746 2822L1747 2823L1746 2822z"/>
<path style="fill:#cbd2d7; stroke:none;" d="M1747 2822L1748 2823L1747 2822z"/>
<path style="fill:#dfe5e7; stroke:none;" d="M1754 2823L1755 2824L1754 2823z"/>
<path style="fill:#738593; stroke:none;" d="M1753.67 2824.33L1754.33 2824.67L1753.67 2824.33z"/>
<path style="fill:#cbd2d7; stroke:none;" d="M3633 2993L3634 2994L3633 2993z"/>
</svg>
